# AST/ASF file generated using VICON BodyLanguage
# -----------------------------------------------
:version 1.10
:name VICON
:units
  mass 1.0
  length 0.45
  angle deg
:documentation
   .ast/.asf automatically generated from VICON data using
   VICON BodyBuilder and BodyLanguage model FoxedUp or BRILLIANT.MOD
:root
   order TX TY TZ RX RY RZ
   axis XYZ
   position 0 0 0  
   orientation 0 0 0 
:bonedata
  begin
     id 1 
     name lhipjoint
     direction 0.612567 -0.751349 0.245431 
     length 2.42285 
     axis 0 0 0  XYZ
  end
  begin
     id 2 
     name lfemur
     direction 0.34202 -0.939693 0  
     length 7.11304  
     axis 0 0 20  XYZ
    dof rx ry rz
    limits (-160.0 20.0)
           (-70.0 70.0)
           (-60.0 70.0)
  end
  begin
     id 3 
     name ltibia
     direction 0.34202 -0.939693 0   
     length 7.84529   
     axis 0 0 20   XYZ
    dof rx
    limits (-10.0 170.0)
  end
  begin
     id 4 
     name lfoot
     direction 0.0779239 -0.214094 0.9737   
     length 1.97176   
     axis -90 7.62852e-016 20   XYZ
    dof rx rz
    limits (-45.0 90.0)
           (-70.0 20.0)
  end
  begin
     id 5 
     name ltoes
     direction 1.53565e-011 -4.21709e-011 1   
     length 0.993197   
     axis -90 7.62852e-016 20   XYZ
    dof rx
    limits (-90.0 20.0)
  end
  begin
     id 6 
     name rhipjoint
     direction -0.665722 -0.709315 0.231701   
     length 2.56642  
     axis 0 0 0  XYZ 
  end
  begin
     id 7 
     name rfemur
     direction -0.34202 -0.939693 0   
     length 7.32108   
     axis 0 0 -20   XYZ
    dof rx ry rz
    limits (-160.0 20.0)
           (-70.0 70.0)
           (-70.0 60.0)
  end
  begin
     id 8 
     name rtibia
     direction -0.34202 -0.939693 0   
     length 7.81254   
     axis 0 0 -20   XYZ
    dof rx
    limits (-10.0 170.0)
 end
 begin
     id 9 
     name rfoot
     direction -0.0832806 -0.228812 0.969902   
     length 2.08278  
     axis -90 -7.62852e-016 -20   XYZ
    dof rx rz
    limits (-45.0 90.0)
           (-20.0 70.0)
  end
  begin
     id 10 
     name rtoes
     direction -1.53589e-011 -4.22086e-011 1   
     length 1.04609   
     axis -90 -7.62852e-016 -20   XYZ
    dof rx
    limits (-90.0 20.0)
  end
  begin
     id 11 
     name lowerback
     direction -0.00506013 0.988403 -0.151766   
     length 2.01978   
     axis 0 0 0   XYZ
    dof rx ry rz
    limits (-20.0 45.0)
           (-30.0 30.0)
           (-30.0 30.0)
  end
  begin
     id 12 
     name upperback
     direction -0.00836389 0.99968 0.0238859   
     length 2.01276   
     axis 0 0 0   XYZ
    dof rx ry rz
    limits (-20.0 45.0)
           (-30.0 30.0)
           (-30.0 30.0)
  end
  begin
     id 13 
     name thorax
     direction -0.00684136 0.995386 0.0957043   
     length 2.07303   
     axis 0 0 0   XYZ
    dof rx ry rz
    limits (-20.0 45.0)
           (-30.0 30.0)
           (-30.0 30.0)
  end
  begin
     id 14 
     name lowerneck
     direction -0.0161045 0.999661 0.0204485   
     length 1.91243   
     axis 0 0 0   XYZ
    dof rx ry rz
    limits (-20.0 45.0)
           (-30.0 30.0)
           (-30.0 30.0)
  end
  begin
     id 15 
     name upperneck
     direction 0.0553583 0.990946 -0.122319   
     length 1.91574   
     axis 0 0 0   XYZ
    dof rx ry rz
    limits (-20.0 45.0)
           (-30.0 30.0)
           (-30.0 30.0)
  end
  begin
     id 16
     name head
     direction 0.0180273 0.998839 -0.0446756  
     length 1.92693  
     axis 0 0 0   XYZ
    dof rx ry rz
    limits (-20.0 45.0)
           (-30.0 30.0)
           (-30.0 30.0)
  end
  begin
     id 17 
     name lclavicle
     direction 0.945646 0.319323 -0.0615358  
     length 4.0076  
     axis 0 0 0   XYZ
    dof ry rz
    limits (-20.0 10.0)
           (0.0 20.0)
  end
  begin
     id 18 
     name lhumerus
     direction 1 -4.48967e-011 -2.79996e-027   
     length 5.64147   
     axis 180 -30 -90   XYZ
    dof rx ry rz
    limits (-60.0 90.0)
           (-90.0 90.0)
           (-90.0 90.0)
  end
  begin
     id 19
     name lradius
     direction 1 -4.48976e-011 -9.5122e-027   
     length 2.86444   
     axis 180 -30 -90   XYZ
    dof rx
    limits (-10.0 170.0)
  end
  begin
     id 20
     name lwrist
     direction 1 -4.48983e-011 -1.24047e-026   
     length 1.43222   
     axis 9.05591e-015 90 90   XYZ
    dof ry
    limits (-180.0 0.0)
 end
  begin
     id 21 
     name lhand
     direction 1 -4.4892e-011 -2.48094e-026   
     length 0.722123   
     axis 1.58305e-014 90 90   XYZ
    dof rx rz
    limits (-90.0 90.0)
           (-45.0 45.0)
  end
  begin
     id 22 
     name lfingers
     direction 1 -4.48895e-011 -4.96187e-026   
     length 0.582194   
     axis 3.1661e-014 90 90   XYZ
    dof rx
    limits (0.0 90.0)
  end
  begin
     id 23
     name lthumb
     direction 0.707107 -6.34961e-011 0.707107   
     length 0.835918   
     axis -90 45 2.85299e-015   XYZ
    dof rx rz
    limits (-45.0 45.0)
           (-45.0 45.0)
  end
  begin
     id 24 
     name rclavicle
     direction -0.932635 0.324218 -0.15835   
     length 3.65819  
     axis 0 0 0   XYZ 
    dof ry rz
    limits (-10.0 20.0)
           (-20.0 0.0)
  end
  begin
     id 25 
     name rhumerus
     direction -1 -4.48965e-011 -4.02296e-027  
     length 5.44729   
     axis 180 30 90   XYZ
    dof rx ry rz
    limits (-90.0 60.0)
           (-90.0 90.0)
           (-90.0 90.0)
  end
  begin
     id 26 
     name rradius
     direction -1 -4.48957e-011 -8.81087e-027   
     length 3.08821   
     axis 180 30 90   XYZ
    dof rx
    limits (-10.0 170.0)
  end
  begin
     id 27 
     name rwrist
     direction -1 -4.49015e-011 -1.24047e-026   
     length 1.5441   
     axis 9.05591e-015 -90 -90   XYZ
    dof ry
    limits (-180.0 0.0)
  end
  begin
     id 28
     name rhand
     direction -1 -4.4891e-011 -2.48094e-026   
     length 0.821049   
     axis 1.58305e-014 -90 -90   XYZ
    dof rx rz
    limits (-90.0 90.0)
           (-45.0 45.0)
  end
  begin
     id 29
     name rfingers
     direction -1 -4.48985e-011 -4.96187e-026   
     length 0.661951   
     axis 3.1661e-014 -90 -90   XYZ
    dof rx
    limits (0.0 90.0)
  end
  begin
     id 30
     name rthumb
     direction -0.707107 -6.34906e-011 0.707107   
     length 0.950433   
     axis -90 -45 -2.85299e-015   XYZ
    dof rx rz
    limits (-45.0 45.0)
           (-45.0 45.0)
  end
:hierarchy
  begin
    root lhipjoint rhipjoint lowerback
    lhipjoint lfemur
    lfemur ltibia
    ltibia lfoot
    lfoot ltoes
    rhipjoint rfemur
    rfemur rtibia
    rtibia rfoot
    rfoot rtoes
    lowerback upperback
    upperback thorax
    thorax lowerneck lclavicle rclavicle
    lowerneck upperneck
    upperneck head
    lclavicle lhumerus
    lhumerus lradius
    lradius lwrist
    lwrist lhand lthumb
    lhand lfingers
    rclavicle rhumerus
    rhumerus rradius
    rradius rwrist
    rwrist rhand rthumb
    rhand rfingers
  end

#!OML:ASF F:\VICON\USERDATA\INSTALL\rory3\rory3.ASF
:FULLY-SPECIFIED
:DEGREES
628
root 3.06836 17.7124 0.175613 220.372 89.4657 223.013
lowerback 5.73797 0.243136 3.26342
upperback 0.00541732 0.5044 -1.36811
thorax -3.17378 0.193192 -3.29143
lowerneck -4.01842 -5.10953 -4.93417
upperneck 6.19576 -7.03521 8.11097
head 3.2812 -3.32698 3.28603
rclavicle 1.43692e-015 -1.35174e-014
rhumerus 23.1242 22.2618 -65.6271
rradius 76.4676
rwrist 19.7317
rhand -3.43114 3.33357
rfingers 7.12502
rthumb 22.3001 -25.3996
lclavicle 1.43692e-015 -1.35174e-014
lhumerus 15.4187 -48.9193 71.2502
lradius 48.7206
lwrist 33.9966
lhand -24.0727 12.8355
lfingers 7.12502
lthumb 2.40711 42.8016
rfemur 2.14064 0.531168 19.1689
rtibia 14.839
rfoot -17.7825 -7.75369
rtoes -7.19013
lfemur 2.55073 -0.193866 -16.0601
ltibia 8.81231
lfoot -9.00858 0.213574
ltoes -4.10026
629
root 3.07044 17.7117 0.176094 217.126 89.4338 219.792
lowerback 5.68868 0.226666 3.27003
upperback 0.0502712 0.481206 -1.37414
thorax -3.10146 0.183793 -3.29857
lowerneck -4.03064 -5.09664 -4.91359
upperneck 6.17623 -7.0151 8.06755
head 3.27179 -3.31823 3.26762
rclavicle -6.26288e-015 -5.76476e-015
rhumerus 23.1216 22.3065 -65.8351
rradius 76.001
rwrist 19.5286
rhand -3.47644 3.42864
rfingers 7.12502
rthumb 22.2567 -25.3098
lclavicle -6.26288e-015 -5.76476e-015
lhumerus 16.3695 -48.9799 70.3695
lradius 49.5011
lwrist 33.9735
lhand -24.0367 13.4562
lfingers 7.12502
lthumb 2.44195 43.4219
rfemur 2.15368 0.398612 19.1531
rtibia 14.8888
rfoot -17.8053 -7.62536
rtoes -7.28192
lfemur 2.60012 -0.242189 -16.0626
ltibia 8.76748
lfoot -9.00448 0.256512
ltoes -4.7497
630
root 3.0719 17.7116 0.177434 217.396 89.386 220.08
lowerback 5.64888 0.22448 3.28993
upperback 0.0908158 0.478572 -1.36698
thorax -3.03728 0.184268 -3.30138
lowerneck -4.0359 -5.10948 -4.86662
upperneck 6.13512 -7.02884 8.00112
head 3.25355 -3.32686 3.23441
rclavicle 6.33956e-015 2.18663e-015
rhumerus 23.0824 22.3245 -66.0665
rradius 75.5223
rwrist 19.3048
rhand -3.29211 3.35799
rfingers 7.12502
rthumb 22.4336 -25.3592
lclavicle 6.33956e-015 2.18663e-015
lhumerus 17.3311 -48.9373 69.5016
lradius 50.3845
lwrist 33.689
lhand -24.0849 13.6378
lfingers 7.12502
lthumb 2.39538 43.6041
rfemur 2.1708 0.369431 19.1941
rtibia 14.914
rfoot -17.8668 -7.61417
rtoes -7.36283
lfemur 2.62046 -0.282456 -16.0189
ltibia 8.77338
lfoot -9.06056 0.264298
ltoes -4.70624
631
root 3.07356 17.7116 0.178686 215.167 89.4071 217.844
lowerback 5.6812 0.223499 3.21891
upperback 0.0544199 0.473869 -1.35809
thorax -3.09404 0.181235 -3.25231
lowerneck -3.97198 -5.0881 -4.90066
upperneck 6.12868 -6.99896 7.99587
head 3.23832 -3.31461 3.24178
rclavicle -1.72345e-015 -1.0138e-014
rhumerus 22.98 22.4806 -66.3312
rradius 74.9511
rwrist 18.9722
rhand -2.99889 3.19391
rfingers 7.12502
rthumb 22.715 -25.4891
lclavicle -1.72345e-015 -1.0138e-014
lhumerus 18.0802 -48.6817 68.8392
lradius 51.4122
lwrist 33.2126
lhand -24.0944 13.6691
lfingers 7.12502
lthumb 2.3862 43.6355
rfemur 2.16203 0.415226 19.1702
rtibia 14.9312
rfoot -17.8669 -7.7187
rtoes -7.4367
lfemur 2.60664 -0.281246 -16.053
ltibia 8.79191
lfoot -9.05644 0.250925
ltoes -4.50884
632
root 3.07412 17.7126 0.179642 218.714 89.3982 221.391
lowerback 5.76445 0.234555 3.21359
upperback -0.000692598 0.49172 -1.32452
thorax -3.19672 0.187362 -3.21731
lowerneck -3.88811 -5.07251 -4.99836
upperneck 6.13903 -6.9787 8.05714
head 3.23269 -3.30651 3.2845
rclavicle 4.18846e-015 2.5842e-015
rhumerus 22.794 22.6698 -66.5769
rradius 74.3229
rwrist 18.6379
rhand -2.56924 2.95351
rfingers 7.12502
rthumb 23.1273 -25.6783
lclavicle 4.18846e-015 2.5842e-015
lhumerus 18.8845 -48.3634 68.2224
lradius 52.5232
lwrist 32.8811
lhand -24.1517 13.5901
lfingers 7.12502
lthumb 2.33081 43.5571
rfemur 2.16853 0.486859 19.2199
rtibia 14.9286
rfoot -17.8841 -7.79637
rtoes -7.33285
lfemur 2.58364 -0.268798 -16.0121
ltibia 8.83936
lfoot -9.06673 0.249966
ltoes -4.45327
633
root 3.0746 17.7117 0.182646 217.662 89.4324 220.356
lowerback 5.80227 0.256775 3.11282
upperback 0.00186511 0.516198 -1.31203
thorax -3.21426 0.200987 -3.14991
lowerneck -3.88668 -5.0856 -5.018
upperneck 6.13172 -6.99517 8.0617
head 3.2324 -3.31521 3.28896
rclavicle 1.5763e-016 9.74045e-015
rhumerus 22.6461 22.8721 -66.7632
rradius 73.6375
rwrist 18.3076
rhand -1.98461 2.71819
rfingers 7.12502
rthumb 23.6882 -25.8422
lclavicle 1.5763e-016 9.74045e-015
lhumerus 19.866 -47.9723 67.4746
lradius 53.7494
lwrist 32.5361
lhand -24.3315 13.3711
lfingers 7.12502
lthumb 2.15722 43.3399
rfemur 2.18357 0.502861 19.2018
rtibia 14.9283
rfoot -17.8687 -7.78947
rtoes -7.36475
lfemur 2.58985 -0.25238 -16.0369
ltibia 8.87161
lfoot -9.10459 0.26273
ltoes -4.23978
634
root 3.07431 17.7102 0.185425 221.343 89.4183 224.072
lowerback 5.83478 0.270427 3.10355
upperback 0.029468 0.535322 -1.29516
thorax -3.20269 0.211514 -3.12892
lowerneck -3.90138 -5.10611 -5.00583
upperneck 6.1299 -7.02082 8.02485
head 3.23387 -3.32873 3.27204
rclavicle 5.73486e-015 -1.35174e-014
rhumerus 22.4579 23.1188 -66.9675
rradius 72.8454
rwrist 18.0037
rhand -1.35846 2.3904
rfingers 7.12502
rthumb 24.2886 -26.0909
lclavicle 5.73486e-015 -1.35174e-014
lhumerus 20.9448 -47.3979 66.6695
lradius 55.1198
lwrist 31.9896
lhand -24.1559 13.5053
lfingers 7.12502
lthumb 2.32678 43.4723
rfemur 2.21194 0.507484 19.2537
rtibia 14.9234
rfoot -17.8795 -7.75637
rtoes -7.20129
lfemur 2.60667 -0.244971 -15.9843
ltibia 8.91352
lfoot -9.08487 0.224452
ltoes -3.78327
635
root 3.07459 17.7104 0.186944 220.078 89.4069 222.807
lowerback 5.84829 0.267237 3.08133
upperback 0.0250999 0.529678 -1.30589
thorax -3.21531 0.208691 -3.12725
lowerneck -3.87511 -5.12743 -5.02209
upperneck 6.15308 -7.05111 8.03477
head 3.24054 -3.34397 3.27758
rclavicle -1.65356e-015 -4.77083e-015
rhumerus 22.1838 23.4382 -67.2291
rradius 71.8853
rwrist 17.6982
rhand -0.782428 2.11111
rfingers 7.12502
rthumb 24.8407 -26.2952
lclavicle -1.65356e-015 -4.77083e-015
lhumerus 21.9829 -46.7213 65.9049
lradius 56.5929
lwrist 31.4112
lhand -24.009 13.6919
lfingers 7.12502
lthumb 2.4687 43.6574
rfemur 2.21314 0.494228 19.2611
rtibia 14.9385
rfoot -17.875 -7.78137
rtoes -7.54511
lfemur 2.58913 -0.264714 -15.9802
ltibia 8.93784
lfoot -9.10086 0.208689
ltoes -4.1834
636
root 3.07411 17.7104 0.188846 219.524 89.4444 222.299
lowerback 5.92681 0.276638 3.0326
upperback 0.0209443 0.540436 -1.33532
thorax -3.26304 0.213753 -3.1322
lowerneck -3.84603 -5.13842 -5.03916
upperneck 6.22906 -7.07296 8.0908
head 3.2669 -3.3524 3.30019
rclavicle -6.95979e-015 0
rhumerus 21.9029 23.8662 -67.4269
rradius 70.886
rwrist 17.2388
rhand -0.159689 1.64883
rfingers 7.12502
rthumb 25.4374 -26.6738
lclavicle -6.95979e-015 0
lhumerus 23.1318 -46.1923 65.0197
lradius 58.0424
lwrist 31.3327
lhand -24.5177 13.1007
lfingers 7.12502
lthumb 1.97736 43.0712
rfemur 2.25971 0.516012 19.241
rtibia 14.9343
rfoot -17.8421 -7.85081
rtoes -7.76026
lfemur 2.62405 -0.244814 -16.0095
ltibia 8.97513
lfoot -9.11126 0.243717
ltoes -4.98021
637
root 3.07397 17.7097 0.191473 220.868 89.5034 223.68
lowerback 5.99156 0.303635 2.95543
upperback 0.0235028 0.57271 -1.34791
thorax -3.29484 0.230524 -3.10527
lowerneck -3.79478 -5.12987 -5.08595
upperneck 6.21667 -7.0641 8.16581
head 3.25875 -3.34775 3.33693
rclavicle 4.99136e-015 -5.96354e-015
rhumerus 21.6331 24.3834 -67.5194
rradius 69.8715
rwrist 16.6372
rhand 0.366565 1.22528
rfingers 7.12502
rthumb 25.9414 -27.0246
lclavicle 4.99136e-015 -5.96354e-015
lhumerus 24.4158 -45.7455 63.9805
lradius 59.6096
lwrist 31.3202
lhand -25.2157 12.4546
lfingers 7.12502
lthumb 1.30328 42.4304
rfemur 2.2791 0.53884 19.2131
rtibia 14.9587
rfoot -17.8491 -7.80995
rtoes -7.57904
lfemur 2.70853 -0.19687 -16.0351
ltibia 8.92437
lfoot -9.08286 0.263079
ltoes -4.76966
638
root 3.07391 17.7106 0.194236 228.015 89.4716 230.838
lowerback 6.01952 0.33448 2.97252
upperback 0.0195482 0.616436 -1.32629
thorax -3.3114 0.251765 -3.09664
lowerneck -3.73376 -5.13426 -5.13369
upperneck 6.1653 -7.06971 8.2216
head 3.23537 -3.35193 3.36638
rclavicle -6.15378e-015 3.18055e-015
rhumerus 21.3325 24.9181 -67.5739
rradius 68.7322
rwrist 16.2118
rhand 0.726078 1.11767
rfingers 7.12502
rthumb 26.2856 -27.0813
lclavicle -6.15378e-015 3.18055e-015
lhumerus 25.7435 -45.1549 62.9956
lradius 61.1714
lwrist 30.7766
lhand -25.2751 12.0986
lfingers 7.12502
lthumb 1.24585 42.0747
rfemur 2.28219 0.57134 19.3052
rtibia 14.9614
rfoot -17.8586 -7.84624
rtoes -7.53318
lfemur 2.72027 -0.178463 -15.9508
ltibia 8.9345
lfoot -9.1354 0.29196
ltoes -5.11868
639
root 3.07396 17.7116 0.19616 220.533 89.5033 223.345
lowerback 6.01837 0.358125 2.85322
upperback 0.0220194 0.638989 -1.35203
thorax -3.30739 0.264962 -3.05791
lowerneck -3.7393 -5.15501 -5.12
upperneck 6.18177 -7.10061 8.24704
head 3.24525 -3.36545 3.37109
rclavicle -5.49997e-015 -1.19271e-015
rhumerus 20.9779 25.4349 -67.7041
rradius 67.5296
rwrist 16.0649
rhand 1.03084 1.25423
rfingers 7.12502
rthumb 26.5774 -26.9009
lclavicle -5.49997e-015 -1.19271e-015
lhumerus 27.1339 -44.5314 62.0074
lradius 62.7688
lwrist 30.4895
lhand -25.498 11.8061
lfingers 7.12502
lthumb 1.03056 41.7833
rfemur 2.27171 0.560934 19.24
rtibia 14.9675
rfoot -17.8517 -7.91392
rtoes -7.82465
lfemur 2.68629 -0.204275 -16.0207
ltibia 8.97256
lfoot -9.16485 0.286607
ltoes -5.17415
640
root 3.07368 17.709 0.197733 217.128 89.5268 219.919
lowerback 5.99884 0.397685 2.80269
upperback 0.0229735 0.686263 -1.40523
thorax -3.29188 0.289353 -3.08839
lowerneck -3.70231 -5.19615 -5.06426
upperneck 6.18036 -7.16311 8.30076
head 3.24276 -3.39349 3.37692
rclavicle 6.10913e-015 -4.37326e-015
rhumerus 20.5061 25.9454 -67.964
rradius 66.3496
rwrist 16.0641
rhand 1.34335 1.22773
rfingers 7.12502
rthumb 26.8764 -26.8817
lclavicle 6.10913e-015 -4.37326e-015
lhumerus 28.6137 -43.933 60.9358
lradius 64.4639
lwrist 30.5402
lhand -25.9463 11.8852
lfingers 7.12502
lthumb 0.597633 41.8641
rfemur 2.26982 0.541704 19.2096
rtibia 14.9543
rfoot -17.8628 -7.85871
rtoes -8.14198
lfemur 2.62954 -0.20515 -16.0586
ltibia 9.03725
lfoot -9.15114 0.256459
ltoes -4.81218
641
root 3.07377 17.7063 0.19916 211.793 89.5852 214.557
lowerback 5.92387 0.444149 2.68573
upperback 0.0566349 0.737408 -1.44713
thorax -3.21198 0.31852 -3.06871
lowerneck -3.69205 -5.24002 -5.01184
upperneck 6.1948 -7.22822 8.33787
head 3.25027 -3.42272 3.37691
rclavicle -1.27948e-015 3.57812e-015
rhumerus 20.141 26.5177 -68.0469
rradius 65.1751
rwrist 16.0919
rhand 1.59479 1.28583
rfingers 7.12502
rthumb 27.117 -26.7864
lclavicle -1.27948e-015 3.57812e-015
lhumerus 30.0746 -43.1708 59.9891
lradius 66.0693
lwrist 30.5861
lhand -26.4362 11.951
lfingers 7.12502
lthumb 0.124434 41.9308
rfemur 2.24749 0.491916 19.139
rtibia 14.9501
rfoot -17.8475 -7.79514
rtoes -8.77624
lfemur 2.57201 -0.18117 -16.1281
ltibia 9.0932
lfoot -9.19315 0.265146
ltoes -4.67067
642
root 3.07353 17.7072 0.200571 216.844 89.5772 219.574
lowerback 5.77783 0.491292 2.54972
upperback 0.145643 0.790554 -1.35915
thorax -3.03698 0.351944 -2.90183
lowerneck -3.72141 -5.28369 -4.99983
upperneck 6.12956 -7.27978 8.27542
head 3.23316 -3.4509 3.34905
rclavicle 2.02954e-014 -1.11319e-014
rhumerus 20.0185 27.2115 -67.7386
rradius 63.9917
rwrist 16.0894
rhand 2.04917 1.49993
rfingers 7.12502
rthumb 27.5516 -26.5038
lclavicle 2.02954e-014 -1.11319e-014
lhumerus 31.5883 -42.2154 59.2323
lradius 67.5351
lwrist 30.5328
lhand -26.5644 11.7118
lfingers 7.12502
lthumb 0.000653101 41.6915
rfemur 2.20118 0.473602 19.1789
rtibia 14.9531
rfoot -17.7902 -7.83232
rtoes -8.95339
lfemur 2.53518 -0.167655 -16.0832
ltibia 9.10709
lfoot -9.18703 0.250784
ltoes -4.48045
